<svg width="24" height="24" xmlns="http://www.w3.org/2000/svg">
 <title/>

 <g>
  <title>background</title>
  <rect fill="none" id="canvas_background" height="402" width="582" y="-1" x="-1"/>
 </g>
 <g>
  <title>Layer 1</title>
  <path fill="#ffffff" id="svg_1" d="m22.676,0l-21.352,0c-0.731,0 -1.324,0.593 -1.324,1.324l0,21.352c0,0.732 0.593,1.324 1.324,1.324l11.494,0l0,-9.294l-3.129,0l0,-3.621l3.129,0l0,-2.675c0,-3.099 1.894,-4.785 4.659,-4.785c1.325,0 2.464,0.097 2.796,0.141l0,3.24l-1.921,0c-1.5,0 -1.792,0.721 -1.792,1.771l0,2.311l3.584,0l-0.465,3.63l-3.119,0l0,9.282l6.115,0c0.733,0 1.325,-0.592 1.325,-1.324l0,-21.352c0,-0.731 -0.592,-1.324 -1.324,-1.324"/>
 </g>
</svg>