<svg width="24" height="24" xmlns="http://www.w3.org/2000/svg">
 <title/>

 <g>
  <title>background</title>
  <rect fill="none" id="canvas_background" height="402" width="582" y="-1" x="-1"/>
 </g>
 <g>
  <title>Layer 1</title>
  <path fill="#ffffff" id="svg_1" d="m23.954,4.569c-0.885,0.389 -1.83,0.654 -2.825,0.775c1.014,-0.611 1.794,-1.574 2.163,-2.723c-0.951,0.555 -2.005,0.959 -3.127,1.184c-0.896,-0.959 -2.173,-1.559 -3.591,-1.559c-2.717,0 -4.92,2.203 -4.92,4.917c0,0.39 0.045,0.765 0.127,1.124c-4.09,-0.193 -7.715,-2.157 -10.141,-5.126c-0.427,0.722 -0.666,1.561 -0.666,2.475c0,1.71 0.87,3.213 2.188,4.096c-0.807,-0.026 -1.566,-0.248 -2.228,-0.616l0,0.061c0,2.385 1.693,4.374 3.946,4.827c-0.413,0.111 -0.849,0.171 -1.296,0.171c-0.314,0 -0.615,-0.03 -0.916,-0.086c0.631,1.953 2.445,3.377 4.604,3.417c-1.68,1.319 -3.809,2.105 -6.102,2.105c-0.39,0 -0.779,-0.023 -1.17,-0.067c2.189,1.394 4.768,2.209 7.557,2.209c9.054,0 13.999,-7.496 13.999,-13.986c0,-0.209 0,-0.42 -0.015,-0.63c0.961,-0.689 1.8,-1.56 2.46,-2.548l-0.047,-0.02z"/>
 </g>
</svg>