<?xml version="1.0" standalone="no"?>
<!DOCTYPE svg PUBLIC "-//W3C//DTD SVG 20010904//EN"
 "http://www.w3.org/TR/2001/REC-SVG-20010904/DTD/svg10.dtd">
<svg version="1.0" xmlns="http://www.w3.org/2000/svg"
 width="350.000000pt" height="350.000000pt" viewBox="0 0 350.000000 350.000000"
 preserveAspectRatio="xMidYMid meet">
<metadata>
Created by potrace 1.11, written by Peter Selinger 2001-2013
</metadata>
<g transform="translate(0.000000,350.000000) scale(0.100000,-0.100000)"
fill="#000000" stroke="none">
<path d="M1600 3494 c-135 -17 -289 -50 -393 -84 -615 -202 -1062 -718 -1179
-1362 -31 -173 -31 -423 0 -596 108 -595 504 -1090 1053 -1316 377 -155 792
-176 1178 -59 542 163 975 586 1152 1124 105 322 115 653 29 988 -172 662
-712 1161 -1387 1281 -114 21 -372 34 -453 24z m1010 -1859 l0 -1025 -822 2
-823 3 818 2 817 3 0 1020 c0 561 2 1020 5 1020 3 0 5 -461 5 -1025z m-30 10
l0 -1005 -826 0 c-817 0 -826 0 -831 20 -3 11 -14 20 -24 20 -19 0 -19 25 -17
978 l3 977 825 5 c454 3 835 6 848 8 l22 2 0 -1005z"/>
<path d="M1308 2435 c-22 -23 -29 -25 -158 -27 l-135 -3 3 -37 c2 -20 -4 -50
-12 -66 -14 -27 -14 -34 -1 -66 8 -19 15 -58 15 -86 l0 -50 39 0 c22 0 44 -6
51 -15 7 -8 18 -15 25 -15 7 0 18 7 25 15 9 11 33 15 91 15 l79 0 0 116 c0
106 2 118 25 152 28 40 31 62 13 80 -18 18 -35 15 -60 -13z m-40 -54 c-8 -21
-124 -191 -130 -191 -4 0 -23 25 -43 55 -19 31 -42 58 -50 61 -10 4 -15 20
-15 45 l0 39 121 0 c66 0 119 -4 117 -9z m42 -181 l0 -90 -60 0 c-33 0 -60 2
-60 5 0 7 112 175 117 175 1 0 3 -40 3 -90z m-247 -49 c22 -38 22 -43 -5 -39
-18 2 -24 11 -26 36 -4 40 8 41 31 3z"/>
<path d="M1470 2390 l0 -40 485 0 485 0 0 40 0 40 -485 0 -485 0 0 -40z"/>
<path d="M1470 2255 l0 -45 485 0 485 0 0 45 0 45 -485 0 -485 0 0 -45z"/>
<path d="M1470 2115 l0 -45 320 0 320 0 0 45 0 45 -320 0 -320 0 0 -45z"/>
<path d="M1308 1875 c-21 -24 -25 -25 -155 -25 l-133 0 0 -40 c0 -23 -7 -54
-15 -70 -13 -25 -13 -32 0 -64 8 -19 15 -61 15 -91 l0 -57 33 3 c17 1 44 -4
58 -10 21 -11 31 -11 50 0 13 7 56 13 94 13 l70 1 3 119 c2 106 5 122 27 154
30 44 32 68 6 82 -27 14 -28 13 -53 -15z m-40 -54 c-8 -22 -124 -191 -131
-191 -4 0 -22 24 -41 53 -19 29 -41 59 -50 66 -9 8 -16 28 -16 47 l0 34 121 0
c66 0 119 -4 117 -9z m42 -181 l0 -90 -60 0 c-33 0 -60 2 -60 5 0 7 112 175
117 175 1 0 3 -40 3 -90z m-247 -49 c22 -38 22 -41 -8 -41 -22 0 -25 4 -25 35
0 43 10 44 33 6z"/>
<path d="M1470 1840 l0 -40 485 0 485 0 0 40 0 40 -485 0 -485 0 0 -40z"/>
<path d="M1470 1708 l0 -43 485 3 485 2 0 40 0 40 -485 0 -485 0 0 -42z"/>
<path d="M1470 1570 l0 -40 440 0 440 0 0 40 0 40 -440 0 -440 0 0 -40z"/>
<path d="M1310 1325 c-22 -23 -29 -25 -159 -27 l-136 -3 3 -42 c2 -26 -3 -51
-12 -66 -15 -22 -15 -27 0 -62 9 -22 14 -59 13 -89 l-3 -51 36 0 c21 0 43 -6
49 -12 16 -16 51 -17 67 -1 7 7 42 12 84 12 l73 1 3 119 c2 106 5 122 27 154
30 44 32 68 6 82 -26 13 -24 14 -51 -15z m-40 -50 c0 -3 -30 -51 -66 -107
l-65 -101 -45 67 c-24 36 -49 66 -54 66 -6 0 -10 18 -10 40 l0 40 120 0 c66 0
120 -2 120 -5z m40 -185 l0 -90 -60 0 c-33 0 -60 2 -60 5 0 7 112 175 117 175
1 0 3 -40 3 -90z m-247 -49 c22 -38 22 -41 -8 -41 -22 0 -25 4 -25 35 0 43 10
44 33 6z"/>
<path d="M1470 1288 l0 -43 485 3 485 2 0 40 0 40 -485 0 -485 0 0 -42z"/>
<path d="M1470 1155 l0 -45 485 0 485 0 0 45 0 45 -485 0 -485 0 0 -45z"/>
<path d="M1470 1015 l0 -45 230 0 230 0 0 45 0 45 -230 0 -230 0 0 -45z"/>
</g>
</svg>
